<?xml version="1.0" encoding="UTF-8"?>
<svg version="1.1" xmlns="http://www.w3.org/2000/svg" width="794" height="1123">
<path d="M0 0 C2.17059938 1.31427718 2.17059938 1.31427718 5.09155273 2.18164062 C5.09155273 2.84164062 5.09155273 3.50164062 5.09155273 4.18164062 C5.88432617 4.39691406 6.67709961 4.6121875 7.49389648 4.83398438 C12.23634802 6.61047273 16.33252053 9.12497065 20.65405273 11.74414062 C22.60939453 12.91405913 24.56514599 14.08329315 26.52124023 15.25195312 C27.57150391 15.88133789 28.62176758 16.51072266 29.70385742 17.15917969 C35.24758002 20.46879326 40.81383022 23.73979929 46.38302612 27.00631714 C48.2323137 28.09170836 50.08009147 29.17963439 51.92773438 30.26782227 C58.23822992 33.9755331 64.58109475 37.57492629 71.07324219 40.95727539 C73.09155273 42.18164062 73.09155273 42.18164062 74.09155273 44.18164062 C75.74461241 44.88136623 77.41384091 45.54327925 79.09155273 46.18164062 C80.62141308 47.00661707 82.13456751 47.8632305 83.63061523 48.74804688 C84.45819336 49.23337891 85.28577148 49.71871094 86.13842773 50.21875 C87.41459961 50.97381836 87.41459961 50.97381836 88.71655273 51.74414062 C90.41557107 52.74799005 92.11603211 53.74940279 93.81811523 54.74804688 C94.94080811 55.41235718 94.94080811 55.41235718 96.08618164 56.09008789 C98.19346042 57.31327587 98.19346042 57.31327587 101.09155273 58.18164062 C101.09155273 58.84164062 101.09155273 59.50164062 101.09155273 60.18164062 C101.96424805 60.44074219 102.83694336 60.69984375 103.73608398 60.96679688 C107.12168789 62.19255102 109.75464799 63.67689939 112.77905273 65.61914062 C118.5279429 69.23462762 124.34223227 72.71106564 130.21655273 76.11914062 C131.46118286 76.84605103 131.46118286 76.84605103 132.73095703 77.58764648 C133.51253174 78.04018799 134.29410645 78.49272949 135.09936523 78.95898438 C135.79690918 79.36366943 136.49445312 79.76835449 137.21313477 80.18530273 C139.22095966 81.31653752 139.22095966 81.31653752 142.09155273 82.18164062 C142.09155273 82.84164062 142.09155273 83.50164062 142.09155273 84.18164062 C142.81987305 84.4575 143.54819336 84.73335937 144.29858398 85.01757812 C163.17033448 92.883007 176.52650408 108.55191097 184.77905273 126.86914062 C190.72457531 142.2664328 190.52338427 157.426934 190.47973633 173.71313477 C190.48380761 176.27388227 190.4891526 178.83462802 190.4956665 181.39537048 C190.50786949 187.59640785 190.50616181 193.7973021 190.49742858 199.99834115 C190.49062168 205.04268508 190.48974822 210.08699853 190.49300003 215.13134575 C190.49345973 215.85241592 190.49391943 216.5734861 190.49439306 217.31640689 C190.49535234 218.78175765 190.49632498 220.2471084 190.49731083 221.71245914 C190.50584142 235.41506287 190.49606703 249.11760615 190.47990973 262.82019996 C190.46650581 274.55049231 190.46883978 286.28069558 190.48266602 298.01098633 C190.49875825 311.6699466 190.50502066 325.32885405 190.49582922 338.98782247 C190.49487369 340.44713206 190.49393057 341.90644166 190.49300003 343.36575127 C190.4925372 344.08355337 190.49207438 344.80135548 190.49159753 345.54090916 C190.48901875 350.57347478 190.49335441 355.60600659 190.50043869 360.63856697 C190.50978188 367.42423003 190.50303162 374.20970006 190.48575592 380.99535561 C190.48180726 383.47766086 190.48289715 385.95998032 190.48954391 388.44227982 C190.54319529 410.52357299 188.2495236 428.68003967 175.09155273 447.18164062 C174.60428711 447.86742187 174.11702148 448.55320312 173.61499023 449.25976562 C164.85963284 460.30498572 151.42075287 467.36611138 139.36108398 474.17773438 C133.47574659 477.50705149 127.69201506 480.99910012 121.90405273 484.49414062 C112.61310738 490.0915748 103.27549405 495.60118263 93.89916992 501.05419922 C78.32632395 510.11156244 62.84444442 519.31695548 47.40380859 528.59765625 C37.97389113 534.26186472 28.50557113 539.85936065 19.0300293 545.44677734 C14.12547311 548.34240515 9.22661105 551.24763407 4.32748413 554.1524353 C-0.75058521 557.16313953 -5.82960501 560.17224052 -10.90844727 563.18164062 C-11.88346191 563.75946289 -12.85847656 564.33728516 -13.86303711 564.93261719 C-18.38095679 567.60926259 -22.90157438 570.28108528 -27.42797852 572.94335938 C-31.31649826 575.23242627 -35.18409274 577.5536332 -39.04516602 579.88867188 C-63.24853642 594.42506038 -87.34927605 603.26496453 -115.97094727 596.68164062 C-124.5597918 594.44494105 -132.20365229 590.49825001 -139.90844727 586.18164062 C-141.29217529 585.41110352 -141.29217529 585.41110352 -142.70385742 584.625 C-148.58029585 581.34450569 -154.43470113 578.02720632 -160.27124023 574.67626953 C-163.56153142 572.81150721 -166.88982795 571.02067468 -170.23095703 569.2487793 C-171.90844727 568.18164062 -171.90844727 568.18164062 -172.90844727 566.18164062 C-174.56094214 565.48058219 -176.23212309 564.82363712 -177.90844727 564.18164062 C-182.0715281 562.31324269 -185.95659645 560.2140735 -189.70922852 557.61523438 C-196.40505771 553.10792523 -203.39319103 549.08769999 -210.34594727 544.99414062 C-213.20243204 543.30835634 -216.05773587 541.6205845 -218.91235352 539.93164062 C-219.60711792 539.52069656 -220.30188232 539.1097525 -221.0177002 538.68635559 C-227.38112494 534.9153969 -233.69412325 531.0640348 -239.95703125 527.12817383 C-243.18773367 524.92162222 -243.18773367 524.92162222 -246.90844727 524.18164062 C-246.90844727 523.52164063 -246.90844727 522.86164062 -246.90844727 522.18164062 C-248.00157227 521.91351562 -249.09469727 521.64539063 -250.22094727 521.36914062 C-253.8847548 520.1892704 -254.42971806 519.73366349 -256.90844727 517.18164062 C-258.38854448 516.21838073 -259.90067583 515.30357615 -261.43188477 514.42382812 C-262.35565918 513.88943115 -263.27943359 513.35503418 -264.23120117 512.80444336 C-265.23844238 512.22766846 -266.24568359 511.65089355 -267.28344727 511.05664062 C-269.46598858 509.79535377 -271.64826885 508.53361511 -273.83032227 507.27148438 C-274.40203156 506.9416304 -274.97374084 506.61177643 -275.56277466 506.27192688 C-282.23849271 502.41980385 -288.88613137 498.52000154 -295.53344727 494.61914062 C-296.76936466 493.8941992 -298.00528588 493.16926429 -299.24121094 492.44433594 C-302.79763415 490.3579238 -306.35315326 488.2699764 -309.90844727 486.18164062 C-310.94372559 485.57368652 -311.97900391 484.96573242 -313.0456543 484.33935547 C-318.51193244 481.12702675 -323.96901374 477.89992311 -329.41674805 474.65625 C-331.88334534 473.19649616 -334.36159895 471.75833709 -336.84204102 470.32226562 C-348.54618261 463.4711486 -359.11433153 456.08805491 -366.82250977 444.64257812 C-367.85941377 443.01822063 -367.85941377 443.01822063 -369.90844727 442.18164062 C-371.1353054 439.86391345 -372.26055098 437.56444266 -373.34594727 435.18164062 C-373.79550781 434.22837891 -373.79550781 434.22837891 -374.25415039 433.25585938 C-377.96627922 425.21962386 -380.36235896 417.25348602 -381.57366943 408.48316956 C-381.70010543 407.57434416 -381.82654142 406.66551877 -381.95680881 405.72915322 C-383.25798015 395.60437011 -383.31564679 385.54941853 -383.26489258 375.35717773 C-383.26568619 373.26473404 -383.26779181 371.1722905 -383.27108765 369.07984924 C-383.27616615 363.45894788 -383.26279128 357.83823365 -383.24556065 352.21736217 C-383.23034043 346.27655089 -383.23169408 340.33574023 -383.230896 334.39491272 C-383.22721713 324.40834437 -383.2123319 314.4218453 -383.18969727 304.43530273 C-383.16095526 291.73063492 -383.15048018 279.02602308 -383.14601517 266.32132626 C-383.14198906 255.27446628 -383.12948845 244.22761781 -383.1156683 233.18076634 C-383.11162668 229.69343229 -383.10867226 226.2060986 -383.10587311 222.71876335 C-383.08102133 196.19028175 -382.84635146 169.6949449 -381.90844727 143.18164062 C-381.24844727 143.18164062 -380.58844727 143.18164062 -379.90844727 143.18164062 C-379.84657227 141.96476563 -379.78469727 140.74789062 -379.72094727 139.49414062 C-377.84468873 123.09615505 -367.65173507 107.38426213 -355.24047852 96.93554688 C-345.82254786 89.85717821 -335.49972688 84.11246954 -325.30200195 78.24584961 C-317.63675333 73.83709761 -317.63675333 73.83709761 -310.20922852 69.04101562 C-306.21330609 66.31318554 -302.05587891 64.01723665 -297.79223633 61.73583984 C-292.73090645 59.00806927 -287.76193671 56.11953227 -282.78344727 53.24414062 C-281.66252686 52.59735352 -280.54160645 51.95056641 -279.38671875 51.28417969 C-270.4719938 46.12852332 -261.63577691 40.84693533 -252.81640625 35.52978516 C-244.42091893 30.47271056 -235.95717664 25.54526247 -227.46313477 20.65625 C-222.41519072 17.74249025 -217.38098775 14.80512216 -212.34594727 11.86914062 C-211.35844482 11.29413818 -210.37094238 10.71913574 -209.35351562 10.12670898 C-208.400979 9.57120361 -207.44844238 9.01569824 -206.46704102 8.44335938 C-205.08234619 7.63584229 -205.08234619 7.63584229 -203.66967773 6.81201172 C-200.04795485 4.67356208 -196.46481174 2.47355845 -192.88916016 0.2590332 C-190.90844727 -0.81835938 -190.90844727 -0.81835938 -188.90844727 -0.81835938 C-188.57844727 -1.47835937 -188.24844727 -2.13835937 -187.90844727 -2.81835938 C-185.87751101 -4.08781156 -183.85036245 -5.27160816 -181.75610352 -6.42773438 C-180.81819725 -6.95436676 -180.81819725 -6.95436676 -179.86134338 -7.49163818 C-178.54108911 -8.23278226 -177.2196209 -8.97176742 -175.89703369 -9.70874023 C-172.78702919 -11.44410385 -169.6897728 -13.20183527 -166.59204102 -14.95898438 C-165.99428864 -15.29796753 -165.39653625 -15.63695068 -164.78067017 -15.98620605 C-163.57502366 -16.66997101 -162.36948735 -17.3539303 -161.1640625 -18.03808594 C-159.93671626 -18.73358763 -158.70850367 -19.42756238 -157.47949219 -20.12011719 C-155.66048893 -21.14564675 -153.84475653 -22.17676877 -152.02954102 -23.20898438 C-150.97178467 -23.80743164 -149.91402832 -24.40587891 -148.82421875 -25.02246094 C-145.98488371 -26.77128021 -143.48683565 -28.7105681 -140.90844727 -30.81835938 C-133.90239356 -34.78218042 -126.50781657 -38.16330022 -118.90844727 -40.81835938 C-118.07829102 -41.11871094 -117.24813477 -41.4190625 -116.39282227 -41.72851562 C-75.01312402 -54.43799437 -33.15384966 -20.33193745 0 0 Z " fill="#0D5292" transform="translate(504.908447265625,225.818359375)"/>
<path d="M0 0 C0.95477527 -0.0060911 1.90955054 -0.01218221 2.89325839 -0.01845789 C6.07681412 -0.03504177 9.25996788 -0.03031869 12.44355774 -0.0255127 C14.73216669 -0.03285542 17.02077193 -0.04144225 19.30937195 -0.05117798 C25.51361439 -0.07337443 31.71772395 -0.0763258 37.92200065 -0.07443047 C43.10136685 -0.07431075 48.28070491 -0.08287501 53.46006328 -0.09120798 C66.37243376 -0.1115317 79.28471784 -0.11259451 92.19709746 -0.10540086 C103.40949496 -0.09981949 114.62166441 -0.12068047 125.8340086 -0.15376133 C137.35479048 -0.187488 148.8754351 -0.20219358 160.3962701 -0.1980443 C166.86135299 -0.19597384 173.3262084 -0.20150302 179.79125023 -0.22593689 C185.86609206 -0.2481391 191.94045708 -0.24638029 198.01530075 -0.22600937 C200.24660294 -0.22258844 202.47793684 -0.22773467 204.70919609 -0.24199295 C207.75102815 -0.26009286 210.7912264 -0.24750494 213.83300781 -0.22705078 C214.7195776 -0.23956863 215.60614739 -0.25208648 216.51958293 -0.26498365 C220.95544473 -0.20085989 222.69095969 -0.02352215 226.3018589 2.79687786 C228.22602844 5.39440918 228.22602844 5.39440918 228.40576172 7.57637024 C228.19522659 8.28307358 227.98469147 8.98977692 227.76777649 9.71789551 C227.53851471 10.49782867 227.30925293 11.27776184 227.07304382 12.08132935 C225.78712792 15.59298474 224.28196479 18.9018291 222.55805969 22.21862793 C222.20015854 22.9273555 221.84225739 23.63608307 221.47351074 24.36628723 C220.33794076 26.60976645 219.18867612 28.84587466 218.03852844 31.08190918 C217.28693704 32.559947 216.53627947 34.03846007 215.78657532 35.51745605 C214.31473214 38.41892777 212.83629557 41.31689618 211.35346985 44.21276855 C209.9554655 46.94930795 208.57745402 49.69433068 207.21968079 52.4510498 C206.90536606 53.08791214 206.59105133 53.72477448 206.26721191 54.38093567 C205.42193028 56.09837968 204.58101595 57.81797124 203.74043274 59.53771973 C200.23136037 66.15704195 196.05347289 70.33383063 189.22602844 73.39440918 C182.23303438 74.61261726 175.28289546 74.52905603 168.20063782 74.50793457 C166.91199829 74.5080806 165.62335876 74.50822662 164.29566956 74.50837708 C160.78384443 74.50866249 157.27205387 74.50280727 153.76023674 74.49580312 C150.08204705 74.48952684 146.40385645 74.48896241 142.72566223 74.48777771 C135.77022508 74.48467696 128.81480377 74.47648057 121.85937357 74.46642822 C113.93672913 74.45522799 106.01408392 74.4497468 98.09143353 74.44473279 C81.80295445 74.43429684 65.51449717 74.41596706 49.22602844 74.39440918 C49.22602844 91.88440918 49.22602844 109.37440918 49.22602844 127.39440918 C53.17346008 127.37869873 57.12089172 127.36298828 61.1879425 127.34680176 C74.21181143 127.29715305 87.23567885 127.26382639 100.25961685 127.23897266 C108.15813772 127.22349941 116.05656899 127.20240121 123.95503235 127.16809082 C130.83880795 127.1382024 137.72251865 127.1188375 144.60635734 127.1121437 C148.25180071 127.10823046 151.89705842 127.09902452 155.54244232 127.07721901 C159.61055765 127.05308192 163.67834957 127.05243882 167.74653625 127.05383301 C168.9571019 127.04304718 170.16766754 127.03226135 171.41491699 127.02114868 C173.07654625 127.02733467 173.07654625 127.02733467 174.77174377 127.03364563 C175.73409565 127.03088025 176.69644753 127.02811487 177.68796158 127.02526569 C180.64143508 127.45482707 182.02209774 128.43178589 184.22602844 130.39440918 C183.71244119 135.33396693 182.69197004 139.05867236 180.41743469 143.46472168 C179.55142639 145.16567993 179.55142639 145.16567993 178.66792297 146.90100098 C178.04173708 148.10728189 177.41526625 149.31341493 176.78852844 150.51940918 C175.5015898 153.02629008 174.22092819 155.53635205 172.94087219 158.04675293 C172.62158752 158.67066422 172.30230286 159.2945755 171.9733429 159.93739319 C169.5449901 164.70428246 167.28712337 169.53620683 165.07221985 174.40612793 C160.57312627 184.26419783 156.22209959 193.16197254 146.22602844 198.39440918 C142.70662398 199.26152996 139.38379685 199.53974686 135.7660675 199.59973145 C134.69173462 199.61967667 133.61740173 199.63962189 132.51051331 199.66017151 C130.76867767 199.68524025 130.76867767 199.68524025 128.99165344 199.71081543 C127.76742676 199.73159653 126.54320007 199.75237762 125.28187561 199.77378845 C122.67263766 199.81707479 120.06336161 199.85811395 117.45405579 199.89709473 C113.58757153 199.95523199 109.7212754 200.02083294 105.85493469 200.08776855 C86.97732494 200.39884368 68.10553891 200.44614851 49.22602844 200.39440918 C49.23046967 201.51447861 49.23491089 202.63454803 49.23948669 203.78855896 C49.28010688 214.366651 49.31004839 224.94472713 49.32965279 235.5228796 C49.34007055 240.96063944 49.35419304 246.39833609 49.37690735 251.83605957 C49.39870736 257.08802979 49.41061216 262.33993938 49.41578293 267.59195137 C49.41946585 269.59131384 49.42665758 271.59067316 49.43748856 273.59000969 C49.45209862 276.39979993 49.45400242 279.20934266 49.45307922 282.01916504 C49.46026978 282.83772476 49.46746033 283.65628448 49.47486877 284.49964905 C49.43875586 294.71960347 47.52230403 302.0391976 40.22602844 309.39440918 C31.64676171 317.12814304 22.10488668 323.72677865 12.63618469 330.30847168 C8.78057635 332.99176083 4.97680647 335.7410607 1.18159485 338.50891113 C-21.17627455 354.79834981 -21.17627455 354.79834981 -27.77397156 354.39440918 C-30.4442111 352.3413286 -31.63071835 351.13590833 -32.27651888 347.79315221 C-32.27771036 346.79763015 -32.27890185 345.80210809 -32.28012943 344.77641869 C-32.29117712 343.62510094 -32.30222481 342.4737832 -32.31360728 341.28757703 C-32.30536651 340.02203666 -32.29712574 338.75649628 -32.28863525 337.4526062 C-32.29395916 336.0950891 -32.30102396 334.73757789 -32.30968231 333.38007796 C-32.32835884 329.64577599 -32.32198758 325.91186925 -32.31152928 322.17755055 C-32.30455102 318.15145333 -32.32052509 314.12543843 -32.33352661 310.09936523 C-32.3551981 302.20904639 -32.35503116 294.3188716 -32.34690107 286.42853276 C-32.34060552 280.01374873 -32.34173403 273.59900676 -32.34817314 267.18422318 C-32.3490748 266.27178315 -32.34997645 265.35934313 -32.35090543 264.41925342 C-32.35275662 262.56566685 -32.35461918 260.7120803 -32.35649299 258.85849376 C-32.37308371 241.46394902 -32.36434286 224.06948531 -32.34750741 206.67494543 C-32.33282318 190.76776262 -32.34741859 174.86076891 -32.37627757 158.95361046 C-32.40568895 142.62021567 -32.41663789 126.2869081 -32.40709537 109.95348799 C-32.40607283 108.10482194 -32.40507822 106.25615586 -32.40411186 104.40748978 C-32.40363547 103.49792046 -32.40315908 102.58835114 -32.40266826 101.65121912 C-32.40050567 95.24881349 -32.41030044 88.84649054 -32.42488289 82.44410324 C-32.44242218 74.63443181 -32.44226668 66.82500109 -32.41953123 59.01533906 C-32.40840101 55.0322509 -32.40519818 51.04958655 -32.42383194 47.06651688 C-32.44069141 43.4156048 -32.43421302 39.76548432 -32.40961515 36.11462303 C-32.40245463 34.17763935 -32.41971827 32.24061214 -32.43802649 30.30370176 C-32.34442355 21.51035524 -30.60330653 14.62248999 -24.59819031 7.99206543 C-23.89307312 7.48546387 -23.18795593 6.9788623 -22.46147156 6.45690918 C-21.76408875 5.93226074 -21.06670593 5.4076123 -20.34819031 4.86706543 C-13.50672904 0.95320974 -7.74152924 -0.04687731 0 0 Z " fill="#FEFEFE" transform="translate(330.7739715576172,336.6055908203125)"/>
<path d="M0 0 C1.43466661 -0.00679667 1.43466661 -0.00679667 2.89831638 -0.01373065 C6.09949652 -0.02637935 9.30050664 -0.02475397 12.50170898 -0.02310181 C14.79825052 -0.02908663 17.09479003 -0.03589207 19.3913269 -0.04345703 C25.62672356 -0.06112581 31.86206532 -0.0658127 38.09748459 -0.0670886 C43.30150336 -0.06898773 48.50550935 -0.07634516 53.7095232 -0.08343279 C65.28333667 -0.09878666 76.85711881 -0.10477041 88.43094099 -0.10342209 C89.47192329 -0.10330222 89.47192329 -0.10330222 90.53393555 -0.10317993 C91.22877253 -0.10309817 91.92360952 -0.10301641 92.63950217 -0.10293217 C103.90628033 -0.10211885 115.17292495 -0.12127041 126.43966448 -0.14945666 C138.01348513 -0.17818241 149.58722336 -0.19163089 161.16108227 -0.19026911 C167.65693835 -0.18975872 174.15264318 -0.19548531 180.64846802 -0.21662521 C186.75523375 -0.23595688 192.8617031 -0.23616666 198.96847916 -0.22159195 C201.21064816 -0.21949667 203.45283547 -0.22424729 205.69497299 -0.23631287 C208.75386783 -0.2517088 211.8117334 -0.2424942 214.87060547 -0.22705078 C215.7595176 -0.23733791 216.64842974 -0.24762503 217.5642786 -0.25822389 C222.96722686 -0.19786867 226.21284778 0.55943254 230.43530273 4.26742554 C231.43530273 7.39242554 231.43530273 7.39242554 231.43530273 10.26742554 C230.77530273 10.92742554 230.11530273 11.58742554 229.43530273 12.26742554 C229.03311523 10.59680054 229.03311523 10.59680054 228.62280273 8.89242554 C227.77721255 5.04901603 227.77721255 5.04901603 224.43530273 3.26742554 C221.35916309 3.06858544 218.37319289 2.98930462 215.29624939 3 C214.34927407 2.99546889 213.40229876 2.99093777 212.42662722 2.98626935 C209.23928453 2.97356422 206.05211138 2.97524969 202.86474609 2.97689819 C200.58498921 2.97091657 198.30523435 2.96411187 196.02548218 2.95654297 C189.82063004 2.93883377 183.61583302 2.93418538 177.41095805 2.9329114 C172.2323201 2.93101448 167.05369505 2.92365893 161.87506205 2.91656721 C150.35198696 2.90119714 138.82894336 2.89523095 127.3058595 2.89657791 C126.61421297 2.89665782 125.92256645 2.89673773 125.20996094 2.89682007 C124.5174673 2.89690183 123.82497367 2.89698359 123.11149538 2.89706783 C111.90219375 2.89787978 100.69302681 2.8787672 89.4837641 2.85054334 C77.96877967 2.82177921 66.45387821 2.80837093 54.93885523 2.80973089 C48.47636143 2.81024058 42.01401982 2.80455356 35.55155754 2.78337479 C29.4686214 2.7639858 23.38598246 2.7638728 17.30303574 2.77840805 C15.07383731 2.78049674 12.84462026 2.77579176 10.61545372 2.76368713 C7.56436936 2.74819675 4.51430479 2.75756855 1.46324158 2.77294922 C0.5878254 2.76266209 -0.28759078 2.75237497 -1.18953472 2.74177611 C-6.95727149 2.80571467 -11.30058247 4.07580111 -16.53442949 6.50746572 C-17.53941204 6.88364583 -17.53941204 6.88364583 -18.56469727 7.26742554 C-19.22469727 6.93742554 -19.88469727 6.60742554 -20.56469727 6.26742554 C-14.09110708 0.5554342 -8.28430205 -0.02886469 0 0 Z " fill="#07376F" transform="translate(329.564697265625,334.7325744628906)"/>
<path d="M0 0 C-5.61874947 2.84295012 -9.99182609 3.42127494 -16.23999023 3.34057617 C-17.58751625 3.34123329 -17.58751625 3.34123329 -18.96226501 3.34190369 C-21.91126766 3.33982515 -24.85969126 3.31653832 -27.80859375 3.29296875 C-29.86124867 3.28736947 -31.91390762 3.28310094 -33.96656799 3.28010559 C-39.35394471 3.26868299 -44.74107657 3.23923799 -50.12835693 3.20599365 C-55.63176156 3.17523703 -61.13520597 3.16158831 -66.63867188 3.14648438 C-77.42588849 3.11436587 -88.21292384 3.06320077 -99 3 C-98.99333817 4.11784882 -98.98667633 5.23569763 -98.97981262 6.38742065 C-98.91885196 16.95046638 -98.8739557 27.51347616 -98.84456348 38.07665825 C-98.8289444 43.50658405 -98.80777494 48.93636721 -98.77368164 54.36621094 C-98.740954 59.61170977 -98.72311876 64.85707185 -98.71536827 70.10266495 C-98.70984877 72.09842199 -98.69907078 74.09417202 -98.68280983 76.08987045 C-98.66085722 78.89715172 -98.65804048 81.70387643 -98.65942383 84.51123047 C-98.648638 85.32619492 -98.63785217 86.14115936 -98.6267395 86.9808197 C-98.66349148 93.92694332 -99.63957202 101.16748642 -104.1875 106.625 C-105.0846875 107.305625 -105.0846875 107.305625 -106 108 C-105.54273352 105.86608974 -105.05870034 104.10639437 -104 102.1875 C-101.43012735 96.56590358 -101.83704126 89.92980492 -101.79467773 83.85180664 C-101.78477814 82.96320953 -101.77487854 82.07461243 -101.76467896 81.15908813 C-101.73327129 78.24280395 -101.70838911 75.32650351 -101.68359375 72.41015625 C-101.66300629 70.37991428 -101.64200936 68.34967643 -101.62062073 66.31944275 C-101.56558511 60.99139754 -101.51609462 55.66331485 -101.46777344 50.33520508 C-101.41742279 44.89205614 -101.3618077 39.44896125 -101.30664062 34.00585938 C-101.19928564 23.33728582 -101.09779088 12.66866521 -101 2 C-84.68394837 1.45989219 -68.3704559 0.96250115 -52.046875 0.71875 C-50.77710815 0.69973633 -49.50734131 0.68072266 -48.19909668 0.66113281 C-43.05676801 0.58635677 -37.91440147 0.51529286 -32.77197266 0.44775391 C-28.9260386 0.39620997 -25.08021887 0.33908224 -21.234375 0.28125 C-20.07315125 0.26767456 -18.91192749 0.25409912 -17.71551514 0.2401123 C-16.10401581 0.21503601 -16.10401581 0.21503601 -14.45996094 0.18945312 C-13.52247009 0.17692505 -12.58497925 0.16439697 -11.61907959 0.15148926 C-1.33077824 -0.44359275 -1.33077824 -0.44359275 0 0 Z " fill="#083970" transform="translate(481,535)"/>
<path d="M0 0 C0.33 0 0.66 0 1 0 C1.19517554 1.93674185 1.38087873 3.87444009 1.5625 5.8125 C1.66691406 6.89144531 1.77132812 7.97039062 1.87890625 9.08203125 C2 12 2 12 1 15 C0.91034742 16.34479606 0.87446568 17.69360358 0.87415886 19.0413847 C0.87155111 19.86653881 0.86894336 20.69169292 0.86625659 21.5418517 C0.86960268 22.90144158 0.86960268 22.90144158 0.87301636 24.28849792 C0.87145637 25.25165761 0.86989638 26.21481729 0.86828911 27.20716363 C0.86428593 30.4495665 0.86746629 33.69192292 0.87060547 36.93432617 C0.86925101 39.25360644 0.86747083 41.57288649 0.86529541 43.89216614 C0.86072309 50.20691633 0.86251069 56.52165025 0.8656745 62.83640075 C0.86794679 68.77853977 0.86621357 74.72067677 0.8647473 80.66281585 C0.86189289 93.16554375 0.86517741 105.66826434 0.87054767 118.17099104 C0.87500211 128.87172884 0.87425097 139.57245577 0.86962891 150.27319336 C0.86425899 162.71104798 0.86218185 175.14889614 0.86524117 187.58675176 C0.86679508 194.16563224 0.86702243 200.74450525 0.86370468 207.32338524 C0.86079721 213.52280222 0.86285412 219.72219889 0.86859894 225.92161369 C0.86991195 228.18698849 0.86955748 230.45236502 0.86733627 232.71773911 C0.8574711 243.80962621 0.95052605 254.82105164 1.83004951 265.88203907 C2.04629243 269.84929427 1.66855713 273.07865953 0.75 276.9375 C0.49734375 278.08089844 0.2446875 279.22429687 -0.015625 280.40234375 C-0.50289062 281.68818359 -0.50289062 281.68818359 -1 283 C-1.99 283.33 -2.98 283.66 -4 284 C-3.78816648 282.90310383 -3.78816648 282.90310383 -3.57205349 281.78404814 C-2.26278267 274.57369636 -1.70928785 267.6834481 -1.72825623 260.36485291 C-1.72316939 259.25824092 -1.71808255 258.15162893 -1.71284157 257.01148325 C-1.69828803 253.338267 -1.69764954 249.6651863 -1.69702148 245.99194336 C-1.68935327 243.3448215 -1.68089938 240.69771311 -1.67144775 238.05059814 C-1.65266325 232.36881105 -1.64089825 226.6870452 -1.63390923 221.00523186 C-1.62370299 212.78721146 -1.60161726 204.56925524 -1.57652331 196.35126836 C-1.53601522 183.0109665 -1.50351427 169.67065849 -1.47680664 156.33032227 C-1.47520934 155.53341984 -1.47361204 154.73651742 -1.47196633 153.91546644 C-1.47036743 153.11753059 -1.46876853 152.31959474 -1.46712118 151.49747902 C-1.44439364 140.16376016 -1.41975922 128.83004757 -1.39282227 117.49633789 C-1.39092612 116.69768497 -1.38902997 115.89903205 -1.38707637 115.07617753 C-1.35532781 101.77213769 -1.31958695 88.46811032 -1.28178078 75.1640864 C-1.25873171 66.96233977 -1.23978101 58.76060165 -1.22611404 50.5588339 C-1.21548241 44.28647448 -1.20007445 38.01413557 -1.18292236 31.74179077 C-1.17674859 29.1645652 -1.17229957 26.58733485 -1.16966438 24.01010323 C-1.16587346 20.50413869 -1.1560774 16.9982414 -1.14476013 13.49229431 C-1.14514626 12.46255318 -1.1455324 11.43281205 -1.14593023 10.37186664 C-1.14168918 9.43626047 -1.13744814 8.50065431 -1.13307858 7.53669643 C-1.13150468 6.72718232 -1.12993078 5.9176682 -1.12830919 5.08362335 C-1 3 -1 3 0 0 Z " fill="#094781" transform="translate(693,367)"/>
<path d="M0 0 C1.98 0 3.96 0 6 0 C6 0.66 6 1.32 6 2 C6.87269531 2.25910156 7.74539063 2.51820313 8.64453125 2.78515625 C12.03013515 4.0109104 14.66309526 5.49525877 17.6875 7.4375 C23.43639017 11.052987 29.25067954 14.52942501 35.125 17.9375 C35.95475342 18.42210693 36.78450684 18.90671387 37.6394043 19.40600586 C38.420979 19.85854736 39.20255371 20.31108887 40.0078125 20.77734375 C40.70535645 21.18202881 41.40290039 21.58671387 42.12158203 22.00366211 C44.12940692 23.1348969 44.12940692 23.1348969 47 24 C47 24.66 47 25.32 47 26 C47.72832031 26.27585937 48.45664062 26.55171875 49.20703125 26.8359375 C69.50563836 35.29605627 82.75386722 52.34583088 91.01953125 72.140625 C93.56584462 79.56652695 93.56584462 79.56652695 92.0625 83.375 C91.711875 83.91125 91.36125 84.4475 91 85 C90.70867187 83.90042969 90.41734375 82.80085938 90.1171875 81.66796875 C82.97364201 55.54799283 67.86117968 40.91100153 44.86376953 27.65185547 C41.89064286 25.93692153 38.9268946 24.20664376 35.96484375 22.47265625 C28.23254084 17.94940944 20.49379578 13.43752641 12.734375 8.9609375 C11.17703809 8.05736965 9.61974348 7.15372887 8.0625 6.25 C7.35262939 5.84378418 6.64275879 5.43756836 5.91137695 5.01904297 C1.1131293 2.2262586 1.1131293 2.2262586 0 0 Z " fill="#0B437E" transform="translate(600,284)"/>
<path d="M0 0 C0.66 0.33 1.32 0.66 2 1 C2.02323849 12.67494439 2.04097353 24.34988321 2.05181217 36.02484608 C2.05701591 41.44682956 2.06406769 46.86879715 2.07543945 52.29077148 C2.08635787 57.52977847 2.09229571 62.76877022 2.09487724 68.0077877 C2.09671542 69.9999077 2.10030474 71.99202694 2.10573006 73.9841404 C2.1581055 94.02494911 2.1581055 94.02494911 1 103 C0.67 103 0.34 103 0 103 C-1.99844923 68.77655698 -1.66750177 34.23256957 0 0 Z " fill="#125090" transform="translate(123,376)"/>
<path d="M0 0 C0.66 0 1.32 0 2 0 C0.67224975 4.12525613 -0.85519085 6.10178139 -4.3125 8.6875 C-5.07175781 9.26886719 -5.83101562 9.85023438 -6.61328125 10.44921875 C-10.96925836 13.27953449 -14.54357126 14.2501515 -19.72639465 14.24050903 C-20.86917877 14.24325836 -22.01196289 14.24600769 -23.18937683 14.24884033 C-24.43375015 14.24164978 -25.67812347 14.23445923 -26.96020508 14.22705078 C-28.27766724 14.22734283 -29.59512939 14.22763489 -30.95251465 14.22793579 C-34.55753031 14.22850889 -38.16241249 14.21676156 -41.76739717 14.20278788 C-45.53768882 14.19027337 -49.30798363 14.18910945 -53.07829285 14.18673706 C-60.21447321 14.18052441 -67.35059219 14.1641165 -74.48674554 14.14403808 C-82.61245399 14.1216724 -90.73816539 14.11068397 -98.86389697 14.10064721 C-115.57596723 14.07975008 -132.28797578 14.04457828 -149 14 C-149 13.67 -149 13.34 -149 13 C-148.33831094 12.99761165 -147.67662188 12.99522329 -146.99488163 12.99276257 C-130.86868498 12.93353704 -114.74265573 12.85793889 -98.61662388 12.76428509 C-90.81807879 12.71938588 -83.01957876 12.67995779 -75.22094727 12.65356445 C-68.42090602 12.63053665 -61.62100809 12.59708555 -54.82108063 12.55129844 C-51.22304587 12.52743039 -47.6251525 12.50865973 -44.02704048 12.50238609 C-40.00293007 12.49517387 -35.97930949 12.46468359 -31.95532227 12.43237305 C-30.18046448 12.43452568 -30.18046448 12.43452568 -28.36975098 12.4367218 C-19.98371966 12.34167194 -12.30501621 11.3827988 -5.5625 6 C-4.92441406 5.505 -4.28632812 5.01 -3.62890625 4.5 C-1.76266721 2.90000779 -1.76266721 2.90000779 0 0 Z " fill="#05407A" transform="translate(532,399)"/>
<path d="M0 0 C4.0270528 1.48859383 7.61864871 3.40522237 11.33203125 5.5546875 C11.92747238 5.89750763 12.52291351 6.24032776 13.13639832 6.59353638 C15.03023986 7.68425998 16.92157697 8.77922568 18.8125 9.875 C29.75029946 16.22607265 29.75029946 16.22607265 41 22 C41 22.66 41 23.32 41 24 C41.71671875 24.268125 42.4334375 24.53625 43.171875 24.8125 C46.03057903 26.01283981 48.59146825 27.40806482 51.25 29 C52.55710937 29.7734375 52.55710937 29.7734375 53.890625 30.5625 C56 32 56 32 57 34 C54.69 33.67 52.38 33.34 50 33 C50 32.34 50 31.68 50 31 C48.906875 30.731875 47.81375 30.46375 46.6875 30.1875 C43.00157358 29.00050675 42.50149517 28.55319171 40 26 C38.35586174 24.94255657 36.67959388 23.93439021 34.984375 22.9609375 C33.98672119 22.38448486 32.98906738 21.80803223 31.96118164 21.21411133 C30.9014917 20.60720459 29.84180176 20.00029785 28.75 19.375 C26.57657024 18.11632163 24.40339309 16.85720696 22.23046875 15.59765625 C19.29489611 13.90153772 16.35872972 12.20649197 13.42041016 10.51513672 C11.29617258 9.28914818 9.17851321 8.0526094 7.0625 6.8125 C6.44922852 6.46300293 5.83595703 6.11350586 5.20410156 5.75341797 C1.11408156 3.34224468 1.11408156 3.34224468 0 0 Z " fill="#0A417B" transform="translate(208,717)"/>
<path d="M0 0 C0.99 0.66 1.98 1.32 3 2 C-6.41583888 7.99845172 -15.93994056 13.81255126 -25.53109741 19.52587891 C-26.76166912 20.25940319 -27.99134434 20.9944335 -29.22012329 21.73095703 C-30.96439032 22.77563162 -32.71258882 23.81373336 -34.4609375 24.8515625 C-35.47978027 25.45822754 -36.49862305 26.06489258 -37.54833984 26.68994141 C-40 28 -40 28 -42 28 C-42 27.34 -42 26.68 -42 26 C-41.01 25.67 -40.02 25.34 -39 25 C-38.67 24.01 -38.34 23.02 -38 22 C-35.79287256 20.58963641 -33.62244931 19.34540837 -31.3125 18.125 C-29.86970693 17.33978244 -28.42838641 16.55185519 -26.98828125 15.76171875 C-26.1988916 15.32907715 -25.40950195 14.89643555 -24.59619141 14.45068359 C-19.67846752 11.7027886 -14.84338974 8.81374167 -10 5.9375 C-9.01427002 5.35307129 -8.02854004 4.76864258 -7.01293945 4.16650391 C-4.67441653 2.77913597 -2.33674911 1.3903528 0 0 Z " fill="#0A4582" transform="translate(263,255)"/>
<path d="M0 0 C-1.79140361 1.10459339 -3.58314954 2.20863163 -5.375 3.3125 C-6.23109863 3.84121704 -6.23109863 3.84121704 -7.10449219 4.38061523 C-10.57504094 6.52048011 -14.057314 8.63860378 -17.5546875 10.734375 C-29.21028485 17.73987588 -29.21028485 17.73987588 -40 26 C-40.66 25.34 -41.32 24.68 -42 24 C-38.56238402 18.89962411 -34.14654622 16.25936274 -29 13.125 C-28.1536499 12.60123779 -27.3072998 12.07747559 -26.43530273 11.5378418 C-23.96351495 10.01400804 -21.48354847 8.50457132 -19 7 C-18.3414502 6.5982959 -17.68290039 6.1965918 -17.00439453 5.78271484 C-4.84134242 -1.61378081 -4.84134242 -1.61378081 0 0 Z " fill="#0A457E" transform="translate(190,302)"/>
<path d="M0 0 C0.33 0 0.66 0 1 0 C2.42770718 18.63667763 2.09576178 37.32350558 2 56 C1.34 56 0.68 56 0 56 C-2.23027312 47.78273877 -2.27672237 39.64360692 -2.20581055 31.20141602 C-2.18728453 28.91085949 -2.18530322 26.62070257 -2.18554688 24.33007812 C-2.14783935 13.14783935 -2.14783935 13.14783935 -1 12 C-0.76572222 9.98405418 -0.58663876 7.961526 -0.4375 5.9375 C-0.35371094 4.83277344 -0.26992187 3.72804688 -0.18359375 2.58984375 C-0.12300781 1.73519531 -0.06242187 0.88054688 0 0 Z " fill="#09376A" transform="translate(124,577)"/>
<path d="M0 0 C3.80083636 1.72765289 7.13357953 4.08403432 10.5625 6.4375 C17.21914433 10.94544917 24.06897372 15.02339241 31.04833984 19.00878906 C37.79326467 22.86105933 44.41791291 26.87585566 51 31 C48.3498375 32.03858756 47.29648571 32.12464975 44.62841797 31.00292969 C43.32348389 30.22030762 43.32348389 30.22030762 41.9921875 29.421875 C41.01354736 28.8431665 40.03490723 28.26445801 39.02661133 27.66821289 C37.98657959 27.03520264 36.94654785 26.40219238 35.875 25.75 C34.80854248 25.11118896 33.74208496 24.47237793 32.64331055 23.81420898 C30.46636487 22.50797645 28.29244557 21.19668694 26.12158203 19.88037109 C23.29417837 18.17720646 20.44902392 16.51233418 17.58984375 14.86328125 C15.99704789 13.93028125 14.40457773 12.9967249 12.8125 12.0625 C12.08981934 11.65161133 11.36713867 11.24072266 10.62255859 10.81738281 C5.72755965 7.89139397 3.04960309 4.82607091 0 0 Z " fill="#0B437D" transform="translate(150,681)"/>
<path d="M0 0 C3.55656384 1.34715912 6.82208066 2.92418579 10.1328125 4.79296875 C11.10476563 5.34146484 12.07671875 5.88996094 13.078125 6.45507812 C14.08359375 7.02677734 15.0890625 7.59847656 16.125 8.1875 C17.10726563 8.73986328 18.08953125 9.29222656 19.1015625 9.86132812 C25.87506179 13.69815897 32.47187145 17.75984186 39 22 C38.01 22.495 38.01 22.495 37 23 C32.07118231 21.1549961 27.55133261 18.74286159 23.0078125 16.09375 C22.06069901 15.54479065 22.06069901 15.54479065 21.0944519 14.98474121 C19.77394465 14.21709342 18.45471111 13.44725067 17.13671875 12.67529297 C15.11476304 11.49401933 13.08500838 10.32697922 11.0546875 9.16015625 C9.76773005 8.40970945 8.48125378 7.65843675 7.1953125 6.90625 C6.58809357 6.55929077 5.98087463 6.21233154 5.35525513 5.8548584 C1.11438087 3.34314262 1.11438087 3.34314262 0 0 Z " fill="#09447A" transform="translate(267,752)"/>
<path d="M0 0 C-1.14216961 3.42650884 -1.547131 3.60791968 -4.55078125 5.27734375 C-5.30319092 5.70297607 -6.05560059 6.1286084 -6.83081055 6.56713867 C-7.64976807 7.01935791 -8.46872559 7.47157715 -9.3125 7.9375 C-11.03475415 8.90986601 -12.75607623 9.88388436 -14.4765625 10.859375 C-15.37665039 11.36791016 -16.27673828 11.87644531 -17.20410156 12.40039062 C-21.90788026 15.09155008 -26.54713369 17.88884856 -31.1875 20.6875 C-32.50584839 21.48111938 -32.50584839 21.48111938 -33.85083008 22.29077148 C-35.90136298 23.52584703 -37.9511151 24.76219317 -40 26 C-40.66 25.34 -41.32 24.68 -42 24 C-34.04042064 19.2067279 -26.0444047 14.47728062 -18.03515625 9.76757812 C-13.15010481 6.88778906 -8.31032313 3.97013207 -3.56298828 0.86743164 C-2 0 -2 0 0 0 Z " fill="#0C4178" transform="translate(492,788)"/>
<path d="M0 0 C0.99 0.33 1.98 0.66 3 1 C-0.66509504 4.9006588 -4.46233889 7.89277645 -8.9375 10.8125 C-9.58775146 11.24191895 -10.23800293 11.67133789 -10.90795898 12.11376953 C-16.43396377 15.72125436 -22.10677674 19.01553012 -27.87890625 22.2109375 C-31.07814871 23.97060017 -31.07814871 23.97060017 -34.15234375 26.2890625 C-37 28 -37 28 -39.17797852 27.60693359 C-39.77924561 27.40664551 -40.3805127 27.20635742 -41 27 C-40.41210693 26.65855957 -39.82421387 26.31711914 -39.21850586 25.96533203 C-24.62310992 17.48383499 -24.62310992 17.48383499 -10.375 8.4375 C-9.77937256 8.0451416 -9.18374512 7.6527832 -8.57006836 7.24853516 C-5.37811441 5.09570277 -2.62184528 2.82008237 0 0 Z " fill="#0C4278" transform="translate(670,679)"/>
<path d="M0 0 C6.17755092 0.42744174 10.80513686 3.37518782 16.0625 6.375 C16.94744141 6.87 17.83238281 7.365 18.74414062 7.875 C20.43700889 8.82493658 22.12560042 9.78254937 23.80908203 10.74902344 C25.5630626 11.75051625 27.33882795 12.71381816 29.12109375 13.6640625 C29.74113281 14.10492188 30.36117188 14.54578125 31 15 C31 15.99 31 16.98 31 18 C26.47673723 16.36392623 22.46415646 14.07902302 18.3125 11.6875 C12.299068 8.2598162 6.24683931 4.98827169 0 2 C0 1.34 0 0.68 0 0 Z " fill="#0B447C" transform="translate(433,187)"/>
<path d="M0 0 C-0.57105469 0.3403125 -1.14210938 0.680625 -1.73046875 1.03125 C-5.66829227 3.38517948 -9.60121798 5.74263708 -13.48828125 8.1796875 C-14.07134033 8.54384766 -14.65439941 8.90800781 -15.25512695 9.28320312 C-16.94290692 10.33927588 -18.62775718 11.40002634 -20.3125 12.4609375 C-23 14 -23 14 -25 14 C-24.8125 11.625 -24.8125 11.625 -24 9 C-22.3530093 8.28610655 -20.68114371 7.62926788 -19 7 C-15.9104812 5.24210034 -12.87896708 3.40199643 -9.83984375 1.55859375 C-5.94841389 -0.57714286 -4.25383146 -1.41794382 0 0 Z " fill="#0A417B" transform="translate(340,214)"/>
<path d="M0 0 C0.66 0 1.32 0 2 0 C0.63596867 3.17661665 -0.76879202 4.88869679 -3.52734375 6.953125 C-4.58489868 7.75327026 -4.58489868 7.75327026 -5.66381836 8.56958008 C-6.4141333 9.12411865 -7.16444824 9.67865723 -7.9375 10.25 C-8.70006104 10.82194092 -9.46262207 11.39388184 -10.24829102 11.9831543 C-12.49329727 13.66306034 -14.74631749 15.33176275 -17 17 C-18.16714358 17.87566678 -19.33386419 18.75189786 -20.5 19.62890625 C-27.72551431 25 -27.72551431 25 -30 25 C-28.67533921 21.02601763 -26.13845134 19.74908644 -22.8125 17.5 C-17.47585612 13.79769026 -12.28213632 9.96696063 -7.1875 5.9375 C-6.28124878 5.22207031 -6.28124878 5.22207031 -5.35668945 4.4921875 C-2.59037301 2.34709766 -2.59037301 2.34709766 0 0 Z " fill="#0F4177" transform="translate(372,644)"/>
<path d="M0 0 C0.99 0.33 1.98 0.66 3 1 C-5.15456454 6.83456131 -13.31841854 12.66289487 -21.6875 18.1875 C-22.76386719 18.90292969 -23.84023438 19.61835937 -24.94921875 20.35546875 C-28.06365522 22.0343135 -30.5014282 22.64856925 -34 23 C-31.36466872 20.95687799 -28.70959932 19.20846262 -25.8125 17.5625 C-18.49094027 13.23313459 -11.64787023 8.18808359 -4.74243164 3.23339844 C-3.18080576 2.12798525 -1.59193939 1.06129293 0 0 Z " fill="#0D4076" transform="translate(338,670)"/>
<path d="M0 0 C2.74090218 2.42557715 4.16540861 5.00119163 5.8125 8.25 C8.39888432 13.13107117 11.23870774 16.970044 15 21 C14.67 21.66 14.34 22.32 14 23 C9.91889144 20.9042956 8.20098821 18.98274056 6 15 C5.34 14.67 4.68 14.34 4 14 C2.89475979 11.8439226 1.86299861 9.64975777 0.875 7.4375 C0.33617187 6.23996094 -0.20265625 5.04242187 -0.7578125 3.80859375 C-1.16773438 2.88175781 -1.57765625 1.95492187 -2 1 C-1.34 0.67 -0.68 0.34 0 0 Z " fill="#093D74" transform="translate(131,654)"/>
<path d="M0 0 C0.33 0 0.66 0 1 0 C1.14550242 4.15842831 1.28773924 8.31695319 1.42724609 12.47558594 C1.47490127 13.88349248 1.52337321 15.29137167 1.57275391 16.69921875 C2.49150718 42.9493122 2.49150718 42.9493122 1 56 C0.67 56 0.34 56 0 56 C-1.11951433 37.25257752 -0.82399282 18.74256676 0 0 Z " fill="#15679F" transform="translate(123,423)"/>
<path d="M0 0 C3.62498334 -0.02893932 7.24993713 -0.04677792 10.875 -0.0625 C12.42380859 -0.07506836 12.42380859 -0.07506836 14.00390625 -0.08789062 C14.99003906 -0.09111328 15.97617187 -0.09433594 16.9921875 -0.09765625 C18.35899658 -0.10551147 18.35899658 -0.10551147 19.75341797 -0.11352539 C22 0 22 0 24 1 C24 1.66 24 2.32 24 3 C15.75 3 7.5 3 -1 3 C-0.67 2.01 -0.34 1.02 0 0 Z " fill="#0B4176" transform="translate(398,182)"/>
<path d="M0 0 C3.66942861 1.37061399 6.93859497 3.03354788 10.30078125 5.0390625 C11.76547852 5.90917969 11.76547852 5.90917969 13.25976562 6.796875 C14.77086914 7.70179688 14.77086914 7.70179688 16.3125 8.625 C17.33923828 9.23601563 18.36597656 9.84703125 19.42382812 10.4765625 C21.95113875 11.98119394 24.47643399 13.4890994 27 15 C26.67 15.66 26.34 16.32 26 17 C20.64193953 15.1137969 16.0600229 12.08270728 11.26367188 9.1015625 C7.88213787 6.80233876 7.88213787 6.80233876 4 6 C4 5.34 4 4.68 4 4 C3.01 3.67 2.02 3.34 1 3 C0.67 2.01 0.34 1.02 0 0 Z " fill="#0A3D75" transform="translate(328,788)"/>
<path d="M0 0 C0.66 0.66 1.32 1.32 2 2 C1.75774664 7.63239064 -0.82151803 12.34157818 -3.25 17.3125 C-3.63285156 18.11623047 -4.01570313 18.91996094 -4.41015625 19.74804688 C-7.07271513 25.28242931 -9.9622611 30.6631505 -13 36 C-14.1484413 33.19800427 -14.04996798 32.12894444 -12.93603516 29.25439453 C-12.39253418 28.22427246 -11.8490332 27.19415039 -11.2890625 26.1328125 C-10.41121094 24.43318359 -10.41121094 24.43318359 -9.515625 22.69921875 C-8.88645573 21.50726345 -8.2562375 20.31586129 -7.625 19.125 C-6.39875243 16.79920437 -5.1852041 14.46792927 -3.9765625 12.1328125 C-3.43080566 11.10043457 -2.88504883 10.06805664 -2.32275391 9.00439453 C-0.98237977 5.95997887 -0.39482948 3.29065501 0 0 Z " fill="#093D73" transform="translate(515,466)"/>
<path d="M0 0 C0.66 1.32 1.32 2.64 2 4 C1.57589844 4.42667969 1.15179688 4.85335938 0.71484375 5.29296875 C-4.84017294 11.21425027 -8.38667889 17.79532325 -12 25 C-13.62562631 21.74874738 -12.2029787 19.08684389 -11.15625 15.73828125 C-9.23495299 11.18818258 -6.18477505 7.72039631 -3 4 C-1.99048108 2.67385924 -0.98743236 1.34266717 0 0 Z " fill="#0B4085" transform="translate(144,328)"/>
<path d="M0 0 C4.75748421 0.99754775 8.5257857 3.38627957 12.6875 5.8125 C13.47189453 6.25142578 14.25628906 6.69035156 15.06445312 7.14257812 C15.81017578 7.57634766 16.55589844 8.01011719 17.32421875 8.45703125 C18.00572998 8.84866455 18.68724121 9.24029785 19.3894043 9.64379883 C21.36370475 11.30625737 21.63146391 12.48949352 22 15 C6.25512528 6.738041 6.25512528 6.738041 -1 2 C-0.67 1.34 -0.34 0.68 0 0 Z " fill="#0C447B" transform="translate(537,246)"/>
<path d="M0 0 C3.11757622 0.63896269 5.50403086 1.71726972 8.25 3.3125 C12.43320772 5.69894022 16.67708416 7.87784131 21 10 C21 11.32 21 12.64 21 14 C16.02642312 12.2657267 11.68501047 9.56672043 7.1875 6.875 C6.39923828 6.40707031 5.61097656 5.93914062 4.79882812 5.45703125 C2.86397546 4.30784603 0.93112772 3.15542997 -1 2 C-0.67 1.34 -0.34 0.68 0 0 Z " fill="#0B4377" transform="translate(489,218)"/>
<path d="M0 0 C-1.7424273 5.22728189 -7.28423456 7.07157349 -11.875 9.75 C-12.89464844 10.36488281 -13.91429687 10.97976563 -14.96484375 11.61328125 C-15.94324219 12.18949219 -16.92164063 12.76570312 -17.9296875 13.359375 C-18.82929199 13.89014648 -19.72889648 14.42091797 -20.65576172 14.96777344 C-23 16 -23 16 -26 15 C-25.51966309 14.7006958 -25.03932617 14.4013916 -24.54443359 14.09301758 C-20.95039087 11.85053985 -17.36293291 9.5987284 -13.7890625 7.32421875 C-11.70703125 6.00585938 -11.70703125 6.00585938 -9.625 4.6875 C-8.91472656 4.23310547 -8.20445312 3.77871094 -7.47265625 3.31054688 C-2.22556391 0 -2.22556391 0 0 0 Z " fill="#0B427A" transform="translate(554,751)"/>
<path d="M0 0 C1 2 1 2 0.3984375 3.84423828 C-0.72065987 6.27838185 -1.84374795 8.70820828 -3 11.125 C-3.41064697 11.98778564 -3.82129395 12.85057129 -4.24438477 13.73950195 C-7.02283339 19.40680471 -9.88283933 25.073536 -15 29 C-15.66 29 -16.32 29 -17 29 C-15.73314271 26.28362228 -14.35168449 24.10843069 -12.4375 21.8125 C-7.32420486 15.17663559 -3.80037804 7.43185039 0 0 Z " fill="#0B3E74" transform="translate(499,504)"/>
<path d="M0 0 C-3.04875927 3.32859708 -6.21910958 5.50435293 -10.125 7.75 C-11.70667969 8.67039062 -11.70667969 8.67039062 -13.3203125 9.609375 C-16 11 -16 11 -18 11 C-18 9.68 -18 8.36 -18 7 C-16.20856793 6.0204042 -14.41684696 5.0413367 -12.625 4.0625 C-11.62726563 3.51722656 -10.62953125 2.97195313 -9.6015625 2.41015625 C-5.99168953 0.45345333 -4.1134941 -0.10824984 0 0 Z " fill="#094376" transform="translate(217,285)"/>
<path d="M0 0 C2.1862793 0.9230957 2.1862793 0.9230957 4 2 C1.0460832 3.84052424 -1.91382908 5.67117365 -4.875 7.5 C-5.71675781 8.02464844 -6.55851563 8.54929687 -7.42578125 9.08984375 C-8.23144531 9.58613281 -9.03710938 10.08242188 -9.8671875 10.59375 C-10.98262939 11.28500977 -10.98262939 11.28500977 -12.12060547 11.99023438 C-14 13 -14 13 -16 13 C-16 12.34 -16 11.68 -16 11 C-15.01 10.67 -14.02 10.34 -13 10 C-12.67 9.01 -12.34 8.02 -12 7 C-9.41796875 5.10546875 -9.41796875 5.10546875 -6.1875 3.1875 C-5.12917969 2.54167969 -4.07085937 1.89585937 -2.98046875 1.23046875 C-1.99691406 0.82441406 -1.01335937 0.41835938 0 0 Z " fill="#0A3E78" transform="translate(237,270)"/>
<path d="M0 0 C0.33 0 0.66 0 1 0 C2.05630191 22.10367938 2.05630191 22.10367938 2.1875 30.1875 C2.20167969 31.04730469 2.21585937 31.90710938 2.23046875 32.79296875 C1.97364713 35.25236224 1.23561723 36.87551978 0 39 C-0.83915384 34.00745849 -1.06265363 29.4000837 -0.87890625 24.31640625 C-0.85529526 23.61603745 -0.83168427 22.91566864 -0.80735779 22.19407654 C-0.73151403 19.98330278 -0.64715561 17.77295205 -0.5625 15.5625 C-0.50919961 14.05275425 -0.45645994 12.5429886 -0.40429688 11.03320312 C-0.2760085 7.35521637 -0.14008839 3.67755841 0 0 Z " fill="#1662A1" transform="translate(123,591)"/>
<path d="M0 0 C0.33 0 0.66 0 1 0 C2.17249801 12.7927908 2.29015745 25.21361813 1 38 C0.67 38 0.34 38 0 38 C-0.77881471 25.22814508 -1.18784403 12.7556174 0 0 Z " fill="#15649A" transform="translate(123,551)"/>
<path d="M0 0 C0.99 0.33 1.98 0.66 3 1 C3 1.66 3 2.32 3 3 C0.89980986 4.47309111 -1.17767729 5.81309635 -3.375 7.125 C-3.97828125 7.49753906 -4.5815625 7.87007812 -5.203125 8.25390625 C-9.72965316 11 -9.72965316 11 -12 11 C-12 9.68 -12 8.36 -12 7 C-11.21753906 6.57847656 -10.43507813 6.15695313 -9.62890625 5.72265625 C-8.61699219 5.17480469 -7.60507812 4.62695312 -6.5625 4.0625 C-5.55316406 3.51722656 -4.54382813 2.97195312 -3.50390625 2.41015625 C-1.13329507 1.22300532 -1.13329507 1.22300532 0 0 Z " fill="#0A427B" transform="translate(281,244)"/>
<path d="M0 0 C0.66 0.33 1.32 0.66 2 1 C0.65686637 5.45706534 -1.10597207 9.28622704 -3.4375 13.3125 C-4.03433594 14.36050781 -4.63117187 15.40851562 -5.24609375 16.48828125 C-7 19 -7 19 -10 20 C-8.34229667 15.50675151 -6.15017838 11.38813854 -3.875 7.1875 C-3.50246094 6.49462891 -3.12992188 5.80175781 -2.74609375 5.08789062 C-1.83309623 3.39065164 -0.91687284 1.69514862 0 0 Z " fill="#0A325C" transform="translate(688,653)"/>
<path d="M0 0 C1.32 0 2.64 0 4 0 C4 0.66 4 1.32 4 2 C4.70125 2.268125 5.4025 2.53625 6.125 2.8125 C9.20600383 4.08508854 12.12626524 5.30188401 15 7 C15.875 9.1875 15.875 9.1875 16 11 C11.95698825 9.51481201 8.38853744 7.57122002 4.6875 5.375 C3.08455078 4.42753906 3.08455078 4.42753906 1.44921875 3.4609375 C0.64097656 2.97882813 -0.16726563 2.49671875 -1 2 C-0.67 1.34 -0.34 0.68 0 0 Z " fill="#0A3E75" transform="translate(643,308)"/>
<path d="M0 0 C1.35949488 4.07848463 0.14486103 7.17680945 -0.9375 11.1875 C-1.13279297 11.93708984 -1.32808594 12.68667969 -1.52929688 13.45898438 C-2.01214375 15.30793459 -2.50510633 17.15423776 -3 19 C-3.33 18.01 -3.66 17.02 -4 16 C-4.99 15.67 -5.98 15.34 -7 15 C-6.34 15 -5.68 15 -5 15 C-4.93941406 14.39671875 -4.87882812 13.7934375 -4.81640625 13.171875 C-4.73261719 12.37265625 -4.64882812 11.5734375 -4.5625 10.75 C-4.48128906 9.96109375 -4.40007812 9.1721875 -4.31640625 8.359375 C-4.02365007 6.17635361 -3.57935581 4.1226818 -3 2 C-2.01 2 -1.02 2 0 2 C0 1.34 0 0.68 0 0 Z " fill="#0B3C72" transform="translate(130,354)"/>
<path d="M0 0 C0.33 0 0.66 0 1 0 C1 10.56 1 21.12 1 32 C0.67 32 0.34 32 0 32 C0 27.71 0 23.42 0 19 C-0.66 18.67 -1.32 18.34 -2 18 C-2 15.36 -2 12.72 -2 10 C-1.34 10 -0.68 10 0 10 C0 6.7 0 3.4 0 0 Z " fill="#10477A" transform="translate(124,532)"/>
<path d="M0 0 C0 0.66 0 1.32 0 2 C-1.78953185 2.83790789 -3.58169695 3.67019396 -5.375 4.5 C-6.87160156 5.19609375 -6.87160156 5.19609375 -8.3984375 5.90625 C-11 7 -11 7 -13 7 C-12.80859375 5.14453125 -12.80859375 5.14453125 -12 3 C-9.78515625 1.69921875 -9.78515625 1.69921875 -7.0625 0.6875 C-6.16660156 0.34074219 -5.27070313 -0.00601563 -4.34765625 -0.36328125 C-2 -1 -2 -1 0 0 Z " fill="#0C467D" transform="translate(388,186)"/>
<path d="M0 0 C0.33 0 0.66 0 1 0 C2.10198755 8.39893212 1.77664648 15.71877177 0 24 C-0.33 24 -0.66 24 -1 24 C-1.02901394 20.5625177 -1.04680335 17.12506688 -1.0625 13.6875 C-1.07087891 12.71103516 -1.07925781 11.73457031 -1.08789062 10.72851562 C-1.09111328 9.79072266 -1.09433594 8.85292969 -1.09765625 7.88671875 C-1.10551147 6.59060669 -1.10551147 6.59060669 -1.11352539 5.26831055 C-1 3 -1 3 0 0 Z " fill="#093974" transform="translate(693,367)"/>
<path d="M0 0 C0.33 0 0.66 0 1 0 C2.60647124 12.00511615 2.60647124 12.00511615 0 18 C-0.99 18.33 -1.98 18.66 -3 19 C-2.86722656 18.21496094 -2.73445312 17.42992187 -2.59765625 16.62109375 C-1.66757357 11.08812013 -0.75808113 5.55926159 0 0 Z " fill="#072B64" transform="translate(692,632)"/>
<path d="M0 0 C4.04301175 1.48518799 7.61146256 3.42877998 11.3125 5.625 C12.38113281 6.25664063 13.44976562 6.88828125 14.55078125 7.5390625 C15.76314453 8.26222656 15.76314453 8.26222656 17 9 C15.38671875 9.703125 15.38671875 9.703125 13 10 C10.01953125 8.671875 10.01953125 8.671875 6.8125 6.75 C5.74644531 6.12609375 4.68039062 5.5021875 3.58203125 4.859375 C1 3 1 3 0 0 Z " fill="#094276" transform="translate(357,805)"/>
<path d="M0 0 C-1.33507686 4.00523058 -3.87337777 5.15889419 -7.3125 7.25 C-7.89451172 7.62640625 -8.47652344 8.0028125 -9.07617188 8.390625 C-13.46947998 11.09726102 -13.46947998 11.09726102 -16.19995117 10.59667969 C-16.79396729 10.39977539 -17.3879834 10.20287109 -18 10 C-15.37957157 8.32605999 -12.75294095 6.6621165 -10.125 5 C-9.37863281 4.52304687 -8.63226562 4.04609375 -7.86328125 3.5546875 C-6.79013672 2.87792969 -6.79013672 2.87792969 -5.6953125 2.1875 C-5.03547363 1.76855469 -4.37563477 1.34960938 -3.69580078 0.91796875 C-2 0 -2 0 0 0 Z " fill="#0C4279" transform="translate(586,732)"/>
<path d="M0 0 C-11.09433962 7.54716981 -11.09433962 7.54716981 -16 10 C-16.99 9.67 -17.98 9.34 -19 9 C-16.40643371 7.29575828 -13.79864964 5.61465286 -11.1875 3.9375 C-10.44951172 3.45216797 -9.71152344 2.96683594 -8.95117188 2.46679688 C-8.23896484 2.01240234 -7.52675781 1.55800781 -6.79296875 1.08984375 C-6.1383667 0.66566162 -5.48376465 0.24147949 -4.80932617 -0.19555664 C-3 -1 -3 -1 0 0 Z " fill="#0C4074" transform="translate(628,709)"/>
<path d="M0 0 C0 0.99 0 1.98 0 3 C-1.45537568 3.83848804 -2.91440373 4.67063934 -4.375 5.5 C-5.59316406 6.19609375 -5.59316406 6.19609375 -6.8359375 6.90625 C-9 8 -9 8 -11 8 C-10.9375 6.25 -10.9375 6.25 -10 4 C-6.7838181 1.55272534 -4.07605096 0 0 0 Z " fill="#0B497B" transform="translate(312,228)"/>
<path d="M0 0 C3.69876091 1.37287342 6.9514476 3.06355453 10.3125 5.125 C11.19550781 5.66382813 12.07851563 6.20265625 12.98828125 6.7578125 C13.65214844 7.16773438 14.31601562 7.57765625 15 8 C12.92446352 8.5534764 11.15634036 9 9 9 C8 8 7 7 6 6 C4.700625 5.2575 4.700625 5.2575 3.375 4.5 C1 3 1 3 0 0 Z " fill="#093979" transform="translate(309,777)"/>
<path d="M0 0 C4.19360449 0.67097672 7.40334352 2.8558394 11 5 C10.67 5.66 10.34 6.32 10 7 C5.80639551 6.32902328 2.59665648 4.1441606 -1 2 C-0.67 1.34 -0.34 0.68 0 0 Z " fill="#0A4785" transform="translate(489,218)"/>
<path d="M0 0 C0.71484375 1.546875 0.71484375 1.546875 1 4 C-0.05391226 6.53857885 -1.13965574 8.84495527 -2.4375 11.25 C-2.77587891 11.8996875 -3.11425781 12.549375 -3.46289062 13.21875 C-4.29786887 14.81814494 -5.14753114 16.40985859 -6 18 C-6.71484375 16.453125 -6.71484375 16.453125 -7 14 C-5.94608774 11.46142115 -4.86034426 9.15504473 -3.5625 6.75 C-3.22412109 6.1003125 -2.88574219 5.450625 -2.53710938 4.78125 C-1.70213113 3.18185506 -0.85246886 1.59014141 0 0 Z " fill="#15467A" transform="translate(508,484)"/>
<path d="M0 0 C-3.63 2.31 -7.26 4.62 -11 7 C-11.66 6.34 -12.32 5.68 -13 5 C-5.34782609 -1.7826087 -5.34782609 -1.7826087 0 0 Z " fill="#0A4379" transform="translate(190,302)"/>
<path d="M0 0 C-1 3 -1 3 -3.14453125 4.203125 C-4.02496094 4.54859375 -4.90539062 4.8940625 -5.8125 5.25 C-6.68519531 5.60578125 -7.55789063 5.9615625 -8.45703125 6.328125 C-11.13641236 7.03604136 -12.43212123 6.9337741 -15 6 C-12.87717331 4.99539469 -10.75166979 3.99644398 -8.625 3 C-7.44164062 2.443125 -6.25828125 1.88625 -5.0390625 1.3125 C-2 0 -2 0 0 0 Z " fill="#0B437B" transform="translate(449,813)"/>
<path d="M0 0 C0.33 0 0.66 0 1 0 C1.22119939 2.62450086 1.42746669 5.24870486 1.625 7.875 C1.68945312 8.62136719 1.75390625 9.36773438 1.8203125 10.13671875 C1.96087365 12.0870047 1.98759849 14.04469467 2 16 C1.34 16.66 0.68 17.32 0 18 C-1.17814715 12.10926427 -1.93753594 5.81260782 0 0 Z " fill="#0B3B74" transform="translate(693,620)"/>
<path d="M0 0 C-1.43011973 0.86646667 -2.86940619 1.71781829 -4.3125 2.5625 C-5.51326172 3.27599609 -5.51326172 3.27599609 -6.73828125 4.00390625 C-9 5 -9 5 -12 4 C-12 3.34 -12 2.68 -12 2 C-10.75579353 1.4654744 -9.50429064 0.94791389 -8.25 0.4375 C-7.55390625 0.14746094 -6.8578125 -0.14257812 -6.140625 -0.44140625 C-3.69987216 -1.07831803 -2.3596345 -0.80248831 0 0 Z " fill="#0A4275" transform="translate(353,207)"/>
<path d="M0 0 C0.66 0.33 1.32 0.66 2 1 C-0.74559948 3.94897721 -3.34117274 6.26205705 -7 8 C-9.15625 7.57421875 -9.15625 7.57421875 -11 7 C-9.21475351 5.80286983 -7.4215972 4.61752721 -5.625 3.4375 C-4.62726563 2.77621094 -3.62953125 2.11492188 -2.6015625 1.43359375 C-1.74304688 0.96050781 -0.88453125 0.48742187 0 0 Z " fill="#0A4178" transform="translate(505,779)"/>
<path d="M0 0 C7.115727 0.97032641 7.115727 0.97032641 10 3 C10.75 5.125 10.75 5.125 11 7 C6.89188572 5.55007731 3.53144334 3.54592427 0 1 C0 0.67 0 0.34 0 0 Z " fill="#0C4480" transform="translate(583,274)"/>
<path d="M0 0 C-1 3 -1 3 -3.21484375 4.203125 C-4.11332031 4.54859375 -5.01179688 4.8940625 -5.9375 5.25 C-7.28134766 5.78367187 -7.28134766 5.78367187 -8.65234375 6.328125 C-11 7 -11 7 -13 6 C-9.13878354 2.5930443 -5.3218579 0 0 0 Z " fill="#0A3D75" transform="translate(322,335)"/>
<path d="M0 0 C3.3063908 0.55106513 6.19982126 1.09987871 9 3 C9.75 5.125 9.75 5.125 10 7 C6.4124787 5.66749209 3.1635377 4.169283 0 2 C0 1.34 0 0.68 0 0 Z " fill="#0A4379" transform="translate(560,260)"/>
<path d="M0 0 C2.92904609 0.50500795 5.51045883 1.3689213 8 3 C8.75 5.125 8.75 5.125 9 7 C5.00499382 5.6302836 2.19990508 3.74277578 -1 1 C-0.67 0.67 -0.34 0.34 0 0 Z " fill="#0A3C82" transform="translate(537,246)"/>
<path d="M0 0 C2.92904609 0.50500795 5.51045883 1.3689213 8 3 C8.75 5.125 8.75 5.125 9 7 C5.00499382 5.6302836 2.19990508 3.74277578 -1 1 C-0.67 0.67 -0.34 0.34 0 0 Z " fill="#0A4175" transform="translate(525,239)"/>
<path d="M0 0 C0.33 3.96 0.66 7.92 1 12 C0.67 10.68 0.34 9.36 0 8 C-0.66 8 -1.32 8 -2 8 C-2.33 5.69 -2.66 3.38 -3 1 C-1 0 -1 0 0 0 Z " fill="#094176" transform="translate(127,632)"/>
<path d="M0 0 C2.00720923 0.28674418 4.0085944 0.61866701 6 1 C6 1.66 6 2.32 6 3 C6.66 3 7.32 3 8 3 C8.33 4.32 8.66 5.64 9 7 C5.00499382 5.6302836 2.19990508 3.74277578 -1 1 C-0.67 0.67 -0.34 0.34 0 0 Z " fill="#094283" transform="translate(573,267)"/>
<path d="M0 0 C5.75 1.875 5.75 1.875 8 3 C8 3.99 8 4.98 8 6 C4.51460083 5.35455571 1.97180943 3.89865603 -1 2 C-0.67 1.34 -0.34 0.68 0 0 Z " fill="#0C4480" transform="translate(515,233)"/>
<path d="M0 0 C0 0.66 0 1.32 0 2 C-1.609375 3.32421875 -1.609375 3.32421875 -3.75 4.6875 C-4.44609375 5.14511719 -5.1421875 5.60273437 -5.859375 6.07421875 C-8.39090725 7.16906025 -9.46100862 6.9435441 -12 6 C-10.37829621 4.99466333 -8.75252763 3.99588093 -7.125 3 C-5.76761719 2.1646875 -5.76761719 2.1646875 -4.3828125 1.3125 C-2 0 -2 0 0 0 Z " fill="#0C4076" transform="translate(607,720)"/>
<path d="M0 0 C2.4375 1.125 2.4375 1.125 5 3 C5.9375 6.0625 5.9375 6.0625 6 9 C5.34 9.66 4.68 10.32 4 11 C3.731875 9.906875 3.46375 8.81375 3.1875 7.6875 C2.12336261 4.38307337 1.65345336 3.05039578 -1 1 C-0.67 0.67 -0.34 0.34 0 0 Z " fill="#0C4279" transform="translate(555,336)"/>
<path d="M0 0 C0.66 0 1.32 0 2 0 C-0.10714286 5.99725275 -0.10714286 5.99725275 -3 8 C-5.1875 7.6875 -5.1875 7.6875 -7 7 C-6.21625 6.401875 -5.4325 5.80375 -4.625 5.1875 C-1.85425677 3.08914751 -1.85425677 3.08914751 0 0 Z " fill="#12467E" transform="translate(532,399)"/>
<path d="M0 0 C5.75 0.875 5.75 0.875 8 2 C8.625 4.0625 8.625 4.0625 9 6 C5.06326356 4.68775452 2.77280706 3.08089673 0 0 Z " fill="#0A4279" transform="translate(465,205)"/>
<path d="M0 0 C2.64 0.33 5.28 0.66 8 1 C8 1.99 8 2.98 8 4 C3.545 3.01 3.545 3.01 -1 2 C-0.67 1.34 -0.34 0.68 0 0 Z " fill="#0A407C" transform="translate(424,184)"/>
<path d="M0 0 C0.66 0 1.32 0 2 0 C1.45660208 4.56454251 0.20536179 7.9728176 -2 12 C-3.40907283 9.18185434 -2.50872691 7.82722796 -1.5625 4.875 C-1.27503906 3.96492188 -0.98757812 3.05484375 -0.69140625 2.1171875 C-0.46324219 1.41851562 -0.23507813 0.71984375 0 0 Z " fill="#073F70" transform="translate(134,341)"/>
<path d="M0 0 C-1 3 -1 3 -3.3125 4.75 C-6.32190521 6.14972335 -6.98041673 5.95287489 -10 5 C-8.71186658 4.16121545 -7.41936744 3.32913217 -6.125 2.5 C-5.40570312 2.0359375 -4.68640625 1.571875 -3.9453125 1.09375 C-2 0 -2 0 0 0 Z " fill="#0C3D71" transform="translate(566,744)"/>
<path d="M0 0 C0.66 0.33 1.32 0.66 2 1 C1.67 1.99 1.34 2.98 1 4 C-1.5625 5.1875 -1.5625 5.1875 -4 6 C-4.33 5.01 -4.66 4.02 -5 3 C-2.625 1.4375 -2.625 1.4375 0 0 Z " fill="#093C6E" transform="translate(360,198)"/>
<path d="M0 0 C0.66 0.33 1.32 0.66 2 1 C0.06745228 3.0245738 -1.63158688 4.42105792 -4 6 C-6.1875 5.625 -6.1875 5.625 -8 5 C-6.71475739 4.13619741 -5.42157581 3.28419631 -4.125 2.4375 C-3.04605469 1.72400391 -3.04605469 1.72400391 -1.9453125 0.99609375 C-1.30335938 0.66738281 -0.66140625 0.33867188 0 0 Z " fill="#0C4078" transform="translate(517,772)"/>
<path d="M0 0 C-1.43120744 0.55808089 -2.87030355 1.09596462 -4.3125 1.625 C-5.11300781 1.92664063 -5.91351563 2.22828125 -6.73828125 2.5390625 C-7.48464844 2.69117188 -8.23101562 2.84328125 -9 3 C-9.99 2.34 -10.98 1.68 -12 1 C-3.96428571 -1.27678571 -3.96428571 -1.27678571 0 0 Z " fill="#0D4177" transform="translate(481,535)"/>
<path d="M0 0 C3.96 1.98 3.96 1.98 8 4 C7.67 4.66 7.34 5.32 7 6 C3.75728494 5.4409112 2.06942576 4.5867822 0 2 C0 1.34 0 0.68 0 0 Z " fill="#0F4A84" transform="translate(636,303)"/>
<path d="M0 0 C1.98 0.66 3.96 1.32 6 2 C6 2.99 6 3.98 6 5 C4.02 4.34 2.04 3.68 0 3 C0 2.01 0 1.02 0 0 Z " fill="#0C437D" transform="translate(479,212)"/>
<path d="M0 0 C0.66 0.33 1.32 0.66 2 1 C2 1.66 2 2.32 2 3 C-0.97 3.66 -3.94 4.32 -7 5 C-4.51068299 2.51068299 -3.16125753 1.22371259 0 0 Z " fill="#0E468D" transform="translate(354,202)"/>
<path d="M0 0 C3.37503669 1.1858237 5.64722731 2.27573689 8 5 C7.01 5.495 7.01 5.495 6 6 C3.4375 4.75 3.4375 4.75 1 3 C0.67 2.01 0.34 1.02 0 0 Z " fill="#0B467B" transform="translate(309,777)"/>
<path d="M0 0 C1 3 1 3 0.22265625 4.82421875 C-0.8515625 6.54947917 -1.92578125 8.27473958 -3 10 C-3.75 8.375 -3.75 8.375 -4 6 C-2.0625 2.75 -2.0625 2.75 0 0 Z " fill="#114175" transform="translate(539,387)"/>
<path d="M0 0 C2.0625 1.5625 2.0625 1.5625 4 4 C3.75 7.75 3.75 7.75 3 11 C0.87953208 7.46588679 0.46800711 4.05606165 0 0 Z " fill="#042B60" transform="translate(689,358)"/>
<path d="M0 0 C2.91517292 1.07401108 4.77810176 1.77810176 7 4 C5.1875 4.625 5.1875 4.625 3 5 C2.01 4.34 1.02 3.68 0 3 C0 2.01 0 1.02 0 0 Z " fill="#0B4C86" transform="translate(452,196)"/>
<path d="M0 0 C2.875 0.25 2.875 0.25 6 1 C7.375 3.0625 7.375 3.0625 8 5 C4.62496331 3.8141763 2.35277269 2.72426311 0 0 Z " fill="#0A4784" transform="translate(336,794)"/>
<path d="M0 0 C2.02045442 0.60183749 4.02111039 1.27306096 6 2 C6.33 2.66 6.66 3.32 7 4 C6.01 4.33 5.02 4.66 4 5 C1.3125 3.0625 1.3125 3.0625 -1 1 C-0.67 0.67 -0.34 0.34 0 0 Z " fill="#073868" transform="translate(235,733)"/>
<path d="M0 0 C0.66 0.33 1.32 0.66 2 1 C1.39816251 3.02045442 0.72693904 5.02111039 0 7 C-0.99 7.495 -0.99 7.495 -2 8 C-1.125 1.125 -1.125 1.125 0 0 Z " fill="#09316E" transform="translate(688,653)"/>
<path d="M0 0 C2.5654594 2.5654594 2.54046087 4.47686668 3 8 C2.67 7.34 2.34 6.68 2 6 C1.01 5.67 0.02 5.34 -1 5 C-0.67 3.35 -0.34 1.7 0 0 Z " fill="#08396E" transform="translate(128,645)"/>
<path d="M0 0 C0.66 1.32 1.32 2.64 2 4 C-0.97 6.475 -0.97 6.475 -4 9 C-3.71125 8.443125 -3.4225 7.88625 -3.125 7.3125 C-1.9586747 4.91505355 -0.9660119 2.48403061 0 0 Z " fill="#073371" transform="translate(144,328)"/>
<path d="M0 0 C0.33 1.32 0.66 2.64 1 4 C-0.98 4.66 -2.96 5.32 -5 6 C-5 5.34 -5 4.68 -5 4 C-3.37373596 2.61767557 -1.7074998 1.28062485 0 0 Z " fill="#0B427C" transform="translate(294,237)"/>
<path d="M0 0 C-5.41538462 4.06153846 -5.41538462 4.06153846 -8.375 3.75 C-8.91125 3.5025 -9.4475 3.255 -10 3 C-3.375 -1.125 -3.375 -1.125 0 0 Z " fill="#093D74" transform="translate(374,194)"/>
<path d="M0 0 C0.66 0 1.32 0 2 0 C2 0.66 2 1.32 2 2 C2.66 2.33 3.32 2.66 4 3 C2.02 3.66 0.04 4.32 -2 5 C-1.125 1.125 -1.125 1.125 0 0 Z " fill="#0A3883" transform="translate(377,188)"/>
<path d="M0 0 C1.98 0 3.96 0 6 0 C6.33 0.66 6.66 1.32 7 2 C4.69 2.33 2.38 2.66 0 3 C0 2.01 0 1.02 0 0 Z " fill="#0A3A74" transform="translate(389,184)"/>
<path d="" fill="#000000" transform="translate(0,0)"/>
<path d="" fill="#000080" transform="translate(0,0)"/>
<path d="" fill="#000000" transform="translate(0,0)"/>
<path d="" fill="#000055" transform="translate(0,0)"/>
<path d="" fill="#000080" transform="translate(0,0)"/>
<path d="" fill="#000000" transform="translate(0,0)"/>
<path d="" fill="#000000" transform="translate(0,0)"/>
<path d="" fill="#000000" transform="translate(0,0)"/>
</svg>
